<mxfile host="app.diagrams.net" modified="2023-12-21T10:41:58.616Z" agent="Mozilla/5.0 (Macintosh; Intel Mac OS X 10_15_7) AppleWebKit/537.36 (KHTML, like Gecko) Chrome/120.0.0.0 Safari/537.36" version="22.1.11" etag="U3W8jtHxvcZpwumTFHAX" type="github">
  <diagram name="Page-1" id="VifNCHUYFa7v5-b2TCyA">
    <mxGraphModel>
      <root>
        <mxCell id="0" />
        <mxCell id="1" parent="0" />
      </root>
    </mxGraphModel>
  </diagram>
</mxfile>
